<svg id="Layer_1" data-name="Layer 1" xmlns="http://www.w3.org/2000/svg" viewBox="0 0 386.99 361.97"><defs><style>.cls-1{fill:#fff;}</style></defs><path class="cls-1" d="M224,176.5l.1,63.5H209.5c-12.2,0-14.5-.2-14.5-1.5,0-1,1-1.5,3.3-1.5a29.86,29.86,0,0,0,5.5-.6l2.2-.6V118.2l-3.1-.6a40,40,0,0,0-5.5-.6c-1.4,0-2.4-.6-2.4-1.5,0-1.5,3.8-2,20.2-2.3l8.6-.2Z" transform="translate(-101.71 -113)"/><polygon class="cls-1" points="191.29 6.2 191.29 12.5 164.79 12.2 138.29 11.9 138.29 63.4 138.29 115 164.79 115 191.29 115 191.29 121 191.29 127 158.29 127 125.29 127 125.29 63.5 125.29 0 158.29 0 191.29 0 191.29 6.2"/><polygon class="cls-1" points="216.29 58 216.29 116 254.79 116 293.29 116 293.29 121.5 293.29 127 249.29 127 205.29 127 205.29 63.5 205.29 0 210.79 0 216.29 0 216.29 58"/><path class="cls-1" d="M346,114.5c0,.9-.9,1.5-2.2,1.5a22.18,22.18,0,0,0-4.5.6l-2.3.6v51.9c0,40.3.3,52,1.3,52.6.6.4,7.3.7,14.7.7,14.8-.2,23.6-1.8,29.5-5.6,4-2.6,8.1-10,9.1-16.6.4-2.4,1.2-4.2,1.9-4.2,1,0,1.3,3.4,1.3,15l-.1,15H321V113h12.5C343.9,113,346,113.2,346,114.5Z" transform="translate(-101.71 -113)"/><path class="cls-1" d="M281.5,173c0,23.1-.1,25-1.7,25-1.4,0-1.8-.9-1.8-4.3,0-6.5-1.9-11.8-5.5-15.4l-3.3-3.3H243v-2.4c0-2.4,0-2.4,12.9-2.8,11.2-.3,13.2-.6,15.1-2.3,2.9-2.6,5.6-8.7,6.5-14.8.5-3.4,1.2-4.7,2.4-4.7C281.3,148,281.5,150.5,281.5,173Z" transform="translate(-101.71 -113)"/><path class="cls-1" d="M150.7,339.7l-.2,63.8-8.6.2c-9,.2-12.7-.8-9.9-2.7a12.32,12.32,0,0,1,5.1-1c2.4,0,3.9-.5,4.3-1.6,1-2.6.7-116.2-.3-116.8-2.1-1.3-15.9,1.5-21.9,4.5-6.7,3.3-11.5,8.9-12.6,15-.3,1.6-.9,4.2-1.2,5.9-.4,2-1.2,3-2.3,3-1.6,0-1.7-.6-.9-6.3a168.33,168.33,0,0,0,1.1-16.9l.2-10.8H151Z" transform="translate(-101.71 -113)"/><polygon class="cls-1" points="100.29 169.5 100.29 176 82.79 176 65.29 176 65.29 233.6 65.29 291.2 59.09 290.8 52.79 290.5 52.49 226.7 52.29 163 76.29 163 100.29 163 100.29 169.5"/><polygon class="cls-1" points="126.29 227 126.29 291.1 120.59 290.8 114.79 290.5 114.49 226.7 114.29 163 120.29 163 126.29 163 126.29 227"/><path class="cls-1" d="M260,277.4c0,.9-1.8,1.6-5.5,2.1l-5.5.6v59.4c0,66-.6,60.5,7.1,60.5,3.2,0,3.9.3,3.9,2,0,1.9-.7,2-14.5,2H231V276h14.5C257.2,276,260,276.3,260,277.4Z" transform="translate(-101.71 -113)"/><path class="cls-1" d="M305,340v64H291c-13.3,0-14-.1-14-2,0-1.7.7-2,5-2s5-.3,5.5-2.3c.3-1.2.4-27.8.3-59.2l-.3-57-5.2-1.4c-3.1-.8-5.3-2-5.3-2.7,0-1.1,2.9-1.4,14-1.4h14Z" transform="translate(-101.71 -113)"/><path class="cls-1" d="M375,282.5V289H321V391h54.1l-.3,6.2-.3,6.3h-66l-.2-62.9c-.2-34.5,0-63.2.3-63.7s15-.9,33.5-.9H375Z" transform="translate(-101.71 -113)"/><polygon class="cls-1" points="334.29 227 334.29 291.1 328.09 290.8 321.79 290.5 321.79 233.2 321.79 176 304.09 176 286.29 176 286.29 169.5 286.29 163 310.29 163 334.29 163 334.29 227"/><path class="cls-1" d="M487.5,286.8c0,5.9.4,13.5.8,16.9.7,5.9.6,6.3-1.3,6.3-1.6,0-2-.7-2-3.1a23.07,23.07,0,0,0-5.8-14.9c-5.3-6.2-12-9.1-24.5-10.4L449,281l.2,59.2.3,59.3,4.8.7c4.9.7,6.5,1.3,5.5,2.3-.3.3-4.8.8-10.2,1.2l-9.6.6V276h47.5Z" transform="translate(-101.71 -113)"/><path class="cls-1" d="M363,336.3c0,21-.2,25.4-1.4,25.4-.9,0-1.6-1.9-2.1-6.1a41.75,41.75,0,0,0-2.5-10.4c-2.7-6-6-7.2-20.5-7.2H325v-5h12.4c11.8,0,12.6-.1,15.4-2.5,3-2.5,6.2-9.8,6.2-14.1,0-3.3,1-5.4,2.6-5.4C362.8,311,363,315.3,363,336.3Z" transform="translate(-101.71 -113)"/><path class="cls-1" d="M390.8,441.2c2,0,2.2.5,2.2,4.7v4.6l-1.8-3.5c-3.1-6.2-10.2-6.6-14.6-.7-3.1,4.1-3.1,18.3,0,22.4,4.3,5.7,12.1,5.6,15.6-.3,1.1-1.9,2.1-3.4,2.2-3.2s.1,2.5-.2,5.2-.7,4.3-1.2,3.6c-.6-1-1.5-1-4.4,0a15.42,15.42,0,0,1-18.8-8.7c-5.5-12.4,2.9-26.5,14.7-24.7A61.87,61.87,0,0,0,390.8,441.2Z" transform="translate(-101.71 -113)"/><path class="cls-1" d="M191.2,445.1c.2,2.2,0,4.3-.4,4.5s-.8-.3-.8-1.4c0-2.4-2.7-4.8-6.2-5.7l-2.8-.7v15.5c0,14,.2,15.6,1.8,16,.9.3-1,.5-4.3.5s-5.2-.2-4.2-.5c1.5-.4,1.7-2,1.7-15.8,0-11.7-.3-15.3-1.2-15.1-4,.7-6.1,2.1-7.4,4.9l-1.3,3.2.1-4.8.1-4.7h24.5Z" transform="translate(-101.71 -113)"/><path class="cls-1" d="M221.7,441.7c-1,.3-1.7,1-1.4,1.6s1.9,5.6,3.8,10.9,3.6,9.8,3.9,9.8,2-4.4,3.9-9.8,3.6-10.2,3.8-10.9-.4-1.3-1.4-1.6.2-.5,2.7-.5,3.8.2,2.9.5-3.4,5.8-6.9,16.1c-2.9,8.6-5.6,16-5.9,16.4s-3.3-6.6-6.5-15.7c-3.9-10.8-6.4-16.6-7.5-16.8-.9-.3,1.1-.5,4.4-.5S222.7,441.4,221.7,441.7Z" transform="translate(-101.71 -113)"/><path class="cls-1" d="M266,443.2a22.18,22.18,0,0,0,.6,4.5c.4,1.3.2,2.3-.4,2.3s-1.2-1.3-1.5-2.9c-.7-3.2-4.5-5.1-10.3-5.1H251v13.6l3.9-.4c3.3-.3,4-.8,4.9-3.5s1-2.2,1.1,4.3c0,7.3,0,7.4-1.4,4.2-1.2-2.8-1.9-3.2-5-3.2h-3.6l.3,7.7.3,7.8,3.1.3c5.8.6,9.7-1.1,11.6-4.8l1.8-3.5V474l-12.7-.1c-7.1-.1-12-.3-11-.6,1.5-.4,1.7-2,1.7-15.8s-.2-15.4-1.7-15.8c-1-.3,3.5-.5,10-.6C265.8,441,266,441,266,443.2Z" transform="translate(-101.71 -113)"/><path class="cls-1" d="M337.9,445.7c-.1,2.7-.4,3.8-.6,2.7-.5-2.8-3.1-5.1-6.5-5.9l-2.8-.7v15.5c0,14,.2,15.6,1.8,16,.9.3-1,.5-4.3.5s-5.2-.2-4.2-.5c1.5-.4,1.7-2,1.7-15.9,0-9.1-.4-15.4-1-15.4-2.5,0-6.4,2.8-7.6,5.5l-1.3,3-.1-4.8V441h25Z" transform="translate(-101.71 -113)"/><path class="cls-1" d="M363.9,445.7c-.1,2.7-.4,3.8-.6,2.7a7.78,7.78,0,0,0-2.2-3.8c-2.2-2-11-3.3-12-1.8a27.23,27.23,0,0,0-.6,6.8c0,5.1.2,5.8,2.1,5.9,3.5.2,6.4-1.3,6.4-3.5,0-1.1.3-2,.8-2s.8,2.9.8,6.5c0,6.5-1.2,9-1.8,3.7-.3-2.4-.8-2.7-4.3-3l-4-.3.2,3.8c.1,2.1.2,5.7.2,8l.1,4.3h4c5.6,0,11-2.4,11-4.9,0-1.1.3-2.2.8-2.4s.7,1.5.7,3.9V474l-12.5-.1c-6.9-.1-11.7-.3-10.7-.6,1.5-.4,1.7-2,1.7-15.8s-.2-15.4-1.7-15.8c-1-.3,3.5-.5,10-.6L364,441Z" transform="translate(-101.71 -113)"/><path class="cls-1" d="M298.1,473c-2.8,0-6.1-3.5-6.1-6.4,0-1.3-1.2-4-2.6-6.1-2-3-2.3-4-1.2-4.6a5.09,5.09,0,0,1,1.9-.9c.9,0,2.9-4.8,2.9-7a9.36,9.36,0,0,0-2.3-4.6c-1.9-2.2-3.2-2.7-8.2-2.8-5.3-.2-14.7,1-10.2,1.3,1.5.1,1.7,1.5,1.7,15.1,0,13.1-.2,15-1.7,15.9s-.3,1,4.2,1c3.3-.1,5.2-.3,4.3-.6-1.3-.3-1.7-1.9-2-8-.2-4.1,0-7.7.4-7.9,1.5-1,5.9,2.1,6.4,4.5,1.8,8.1,2.7,10.2,4.7,11.6,2.4,1.7,8.3,2,9.2.5C299.8,473.4,299.2,473,298.1,473Zm-16.6-17.8-3,.3v-6.8l-.1-6.7h3.3c3.8,0,5.3,2.1,5.3,7.3C287,453.3,285.7,454.7,281.5,455.2Z" transform="translate(-101.71 -113)"/><path class="cls-1" d="M216.5,473c-1.5-.6-3.4-4.8-7.4-16.4-2.9-8.6-5.7-15.6-6.1-15.6s-3.2,7-6,15.6c-4.1,12.2-5.7,15.7-7.4,16.4s-.9.9,2.9.8c2.8,0,4.2-.2,3.3-.5-2.2-.5-2.2-1.4-.4-5.8,1.4-3.3,1.7-3.5,6.5-3.5h4.9l1.5,4.4c1.4,4.1,1.4,4.5-.1,4.9-.9.3,1,.5,4.3.5C216.6,473.9,217.9,473.6,216.5,473ZM202,462c-2.2,0-4-.3-4-.7s.8-3,1.7-5.9,1.8-5.2,2-5c.4.3,4.3,10.8,4.3,11.3C206,461.9,204.2,462,202,462Z" transform="translate(-101.71 -113)"/><path class="cls-1" d="M423.5,473c-1.5-.6-3.4-4.8-7.4-16.4-2.9-8.6-5.7-15.6-6.1-15.6s-3.1,7-6,15.5c-3,8.9-5.9,15.9-6.9,16.5-1.2.7-.4.9,2.9.9,2.5-.1,3.7-.3,2.7-.6-1.3-.3-1.6-1.1-1.1-3.1,1.3-5.5,2.2-6.2,7.3-6.2,4.9,0,4.9,0,6.4,4.4,1.4,4.1,1.4,4.5-.1,4.9-.9.3,1,.5,4.3.5C423.6,473.9,424.9,473.6,423.5,473Zm-14.4-11c-2.3,0-4.1-.3-4.1-.7s.8-3.1,1.7-6.1l1.8-5.5,1.6,3.9C413.6,461.8,413.6,462,409.1,462Z" transform="translate(-101.71 -113)"/></svg>